avconv version 9.18-6:9.18-0ubuntu0.14.04.1+fdkaac, Copyright (c) 2000-2014 the Libav developers
  built on Apr 10 2015 23:18:58 with gcc 4.8 (Ubuntu 4.8.2-19ubuntu1)
Input #0, image2, from 'imagenes/Cubo%02d.png':
  Duration: 00:00:04.00, start: 0.000000, bitrate: N/A
    Stream #0.0: Video: png, rgb24, 320x240, 25 fps, 25 tbr, 25 tbn
[libx264 @ 0x215ade0] using cpu capabilities: MMX2 SSE2Fast SSSE3 SSE4.2 AVX
[libx264 @ 0x215ade0] profile High, level 1.3
Output #0, avi, to 'cub_h264.avi':
  Metadata:
    ISFT            : Lavf54.20.4
    Stream #0.0: Video: libx264, yuv420p, 320x240, q=-1--1, 25 tbn, 25 tbc
Stream mapping:
  Stream #0:0 -> #0:0 (png -> libx264)
Press ctrl-c to stop encoding
frame=  100 fps=  0 q=32763.0 Lsize=     409kB time=3.92 bitrate= 853.9kbits/s    
video:177kB audio:0kB global headers:0kB muxing overhead 130.849954%
[libx264 @ 0x215ade0] frame I:4     Avg QP:26.31  size:  6377
[libx264 @ 0x215ade0] frame P:96    Avg QP:27.97  size:  4008
[libx264 @ 0x215ade0] mb I  I16..4: 10.0% 77.8% 12.2%
[libx264 @ 0x215ade0] mb P  I16..4:  4.2% 26.4%  4.9%  P16..4: 24.2% 24.3% 12.0%  0.0%  0.0%    skip: 4.1%
[libx264 @ 0x215ade0] 8x8 transform intra:74.8% inter:73.9%
[libx264 @ 0x215ade0] coded y,uvDC,uvAC intra: 72.5% 93.2% 77.0% inter: 52.2% 63.0% 14.1%
[libx264 @ 0x215ade0] i16 v,h,dc,p: 11% 43% 13% 33%
[libx264 @ 0x215ade0] i8 v,h,dc,ddl,ddr,vr,hd,vl,hu: 20% 13% 21%  6%  6%  9%  5% 12%  7%
[libx264 @ 0x215ade0] i4 v,h,dc,ddl,ddr,vr,hd,vl,hu: 23% 10% 15%  9%  7% 11%  6% 14%  5%
[libx264 @ 0x215ade0] i8c dc,h,v,p: 40% 20% 24% 17%
[libx264 @ 0x215ade0] Weighted P-Frames: Y:16.7% UV:13.5%
[libx264 @ 0x215ade0] ref P L0: 58.3% 18.4% 14.5%  7.7%  1.1%
[libx264 @ 0x215ade0] kb/s:820.54
bench: utime=1.780s maxrss=51812kB
